HIERARCHY
ROOT root
{
	OFFSET 0.000000 0.000000 0.000000
	CHANNELS 6 Xposition Yposition Zposition Zrotation Yrotation Xrotation
	JOINT lhip
	{
		OFFSET 0.058581 -0.082280 -0.017664
		CHANNELS 3 Zrotation Yrotation Xrotation
		JOINT lknee
		{
			OFFSET 0.043451 -0.386469 0.008037
			CHANNELS 3 Zrotation Yrotation Xrotation
			JOINT lankle
			{
				OFFSET -0.014790 -0.426874 -0.037428
				CHANNELS 3 Zrotation Yrotation Xrotation
				JOINT ltoe
				{
					OFFSET 0.041054 -0.060286 0.122042
					CHANNELS 3 Zrotation Yrotation Xrotation
					End Site
					{
						OFFSET 0.000000 0.000000 0.000000
					}
				}
			}
		}
	}
	JOINT rhip
	{
		OFFSET -0.060310 -0.090513 -0.013543
		CHANNELS 3 Zrotation Yrotation Xrotation
		JOINT rknee
		{
			OFFSET -0.043257 -0.383688 -0.004843
			CHANNELS 3 Zrotation Yrotation Xrotation
			JOINT rankle
			{
				OFFSET 0.019056 -0.420046 -0.034562
				CHANNELS 3 Zrotation Yrotation Xrotation
				JOINT rtoe
				{
					OFFSET -0.034840 -0.062106 0.130323
					CHANNELS 3 Zrotation Yrotation Xrotation
					End Site
					{
						OFFSET 0.000000 0.000000 0.000000
					}
				}
			}
		}
	}
	JOINT lowerback
	{
		OFFSET 0.004439 0.124404 -0.038385
		CHANNELS 3 Zrotation Yrotation Xrotation
		JOINT upperback
		{
			OFFSET 0.004488 0.137956 0.026820
			CHANNELS 3 Zrotation Yrotation Xrotation
			JOINT chest
			{
				OFFSET -0.002265 0.056032 0.002855
				CHANNELS 3 Zrotation Yrotation Xrotation
				JOINT lowerneck
				{
					OFFSET -0.013390 0.211636 -0.033468
					CHANNELS 3 Zrotation Yrotation Xrotation
					JOINT upperneck
					{
						OFFSET 0.010113 0.088937 0.050410
						CHANNELS 3 Zrotation Yrotation Xrotation
						End Site
						{
							OFFSET 0.000000 0.000000 0.000000
						}
					}
				}
				JOINT lclavicle
				{
					OFFSET 0.071702 0.114000 -0.018898
					CHANNELS 3 Zrotation Yrotation Xrotation
					JOINT lshoulder
					{
						OFFSET 0.122921 0.045205 -0.019046
						CHANNELS 3 Zrotation Yrotation Xrotation
						JOINT lelbow
						{
							OFFSET 0.255332 -0.015649 -0.022946
							CHANNELS 3 Zrotation Yrotation Xrotation
							JOINT lwrist
							{
								OFFSET 0.265709 0.012698 -0.007375
								CHANNELS 3 Zrotation Yrotation Xrotation
								End Site
								{
									OFFSET 0.000000 0.000000 0.000000
								}
							}
						}
					}
				}
				JOINT rclavicle
				{
					OFFSET -0.082954 0.112472 -0.023707
					CHANNELS 3 Zrotation Yrotation Xrotation
					JOINT rshoulder
					{
						OFFSET -0.113228 0.046853 -0.008472
						CHANNELS 3 Zrotation Yrotation Xrotation
						JOINT relbow
						{
							OFFSET -0.260127 -0.014369 -0.031269
							CHANNELS 3 Zrotation Yrotation Xrotation
							JOINT rwrist
							{
								OFFSET -0.269108 0.006794 -0.006027
								CHANNELS 3 Zrotation Yrotation Xrotation
								End Site
								{
									OFFSET 0.000000 0.000000 0.000000
								}
							}
						}
					}
				}
			}
		}
	}
}
MOTION
Frames: 17
Frame Time: 0.033333
-0.527532 0.249712 1.149257 95.708874 0.970622 87.039408 6.055078 -1.148802 -21.501554 -2.584464 8.056647 17.751397 -11.696089 2.181663 22.537870 0.000000 -0.000000 0.000000 -3.659454 -4.933006 -21.387833 -0.346807 -15.349675 21.088316 9.541605 -0.809869 23.999207 0.000000 -0.000000 0.000000 -1.275385 2.925937 28.146879 1.398481 -3.659312 0.311937 3.098445 -0.623753 0.721463 -4.264888 -3.774741 15.747107 8.437272 -1.718118 9.094294 -15.306049 -17.963246 0.943824 -71.356756 -30.007698 18.477930 15.219088 -27.929197 -11.759611 6.629997 -9.758116 -26.399168 13.394405 19.288069 1.375380 68.565852 26.486436 18.066249 -17.997884 20.906518 -9.596475 -1.631980 7.076498 -9.597727 
-0.498062 0.249463 1.102453 96.150406 1.104379 85.721930 6.160701 -0.850277 -19.010135 -2.897357 7.455519 18.075962 -12.068740 1.892703 24.236251 0.000000 -0.000000 0.000000 -3.848166 -4.662418 -18.068201 0.101440 -13.702810 21.206569 9.253927 -0.047099 23.161686 0.000000 -0.000000 0.000000 -1.518100 3.059279 25.121369 1.685614 -3.634179 0.844057 2.835978 -0.668066 0.823499 -3.676502 -3.617496 16.871750 8.011232 -2.433192 9.750843 -15.585821 -16.010728 1.698239 -71.703831 -28.247328 17.668711 13.815239 -26.715222 -9.657946 4.711403 -9.907534 -25.119629 14.293282 17.164823 2.188381 68.880874 24.261353 17.469854 -17.230173 21.276393 -7.663991 -0.716925 6.878943 -9.007305 
-0.468092 0.250349 1.045510 96.557708 1.355219 84.288923 6.132849 -0.852175 -17.014387 -4.857408 2.571261 23.534079 -7.985199 -1.210932 10.629367 0.000000 -0.000000 0.000000 -3.807338 -3.759513 -15.537622 1.216254 -9.341891 25.904233 6.868280 1.874266 8.035339 0.000000 -0.000000 0.000000 -1.536292 2.987392 22.366506 2.055592 -3.562399 0.635111 2.332764 -0.642792 1.453250 -1.784475 -2.580047 16.646990 6.441357 -4.333935 10.516277 -15.420763 -13.966463 2.282801 -71.522477 -25.852087 15.982639 12.006798 -26.366388 -6.863213 3.517294 -9.947769 -25.237663 14.866882 15.265373 2.820360 68.759794 21.420530 15.918083 -16.241465 22.083888 -4.519283 0.688784 6.571074 -8.541650 
-0.444176 0.252596 0.987553 96.849468 1.651447 82.098655 6.785298 -1.100782 -16.555028 -7.288416 0.261374 32.426203 1.139331 4.660870 -10.455636 0.000000 -0.000000 0.000000 -3.845568 -2.113196 -14.341873 3.462334 -5.718742 34.340647 1.525133 -1.471802 -12.847588 0.000000 -0.000000 0.000000 -1.219476 2.705456 22.040306 2.450666 -3.190487 -0.218477 1.452566 -0.543448 4.007470 1.023071 -1.219221 10.642445 3.726485 -7.122051 14.893444 -15.682475 -11.759070 1.036462 -69.531232 -24.007195 16.392290 10.053558 -25.382564 -2.578293 7.372330 -7.689044 -28.294924 16.487889 12.856600 1.098239 67.219976 19.024064 16.347889 -16.001301 21.584871 -2.575166 2.421597 6.017964 -8.127341 
-0.431297 0.254927 0.948048 96.770392 1.658156 80.334144 7.240945 -1.225445 -19.243789 -8.349434 0.876995 42.376656 2.722142 7.000006 -17.828395 0.000000 -0.000000 0.000000 -4.037110 -1.357916 -16.886081 3.570913 -6.027779 44.559885 0.199587 -4.413710 -20.739175 0.000000 -0.000000 0.000000 -1.283104 2.620429 24.793898 2.966886 -2.553633 -0.830395 1.176906 -0.818052 4.400972 2.194950 -0.278275 6.238700 2.007297 -8.167909 16.850213 -17.675197 -9.808553 1.101940 -65.899481 -22.030773 13.618012 9.484088 -23.834613 -1.748145 7.632313 -7.721268 -25.166934 19.313491 11.123878 0.854475 63.497084 17.328775 14.440218 -15.702330 21.005982 -2.869760 2.739815 5.985112 -6.728625 
-0.422688 0.256803 0.932686 96.294366 1.346351 79.009112 7.268179 -1.946326 -20.383343 -9.357023 1.596915 47.854703 1.733937 8.668944 -19.358680 0.000000 -0.000000 0.000000 -4.543137 -1.553875 -18.420593 3.208560 -6.449948 50.731041 0.717273 -5.073760 -22.622064 0.000000 -0.000000 0.000000 -1.284750 2.861761 27.475289 3.208765 -2.380371 -0.828212 1.222574 -0.773516 4.073539 1.787164 -0.513881 6.142999 2.245407 -7.565575 14.667941 -19.425380 -8.310053 2.168431 -62.856972 -18.780811 11.156383 9.492188 -22.066156 -4.239683 10.100831 -7.214826 -24.700147 20.654576 10.170420 1.684432 60.760051 14.600303 12.407907 -15.646054 20.193714 -4.122498 0.645935 5.855254 -6.592029 
-0.416810 0.258630 0.928533 95.786730 1.407763 79.203231 6.764555 -0.898424 -20.239710 -9.722691 0.446617 48.404870 2.876214 10.428073 -20.856868 0.000000 -0.000000 0.000000 -4.444663 -2.667946 -17.994018 3.887262 -5.655603 50.396784 -0.211766 -5.746172 -24.393400 0.000000 -0.000000 0.000000 -0.646949 2.634463 27.805727 2.953408 -2.224593 -1.076477 1.111633 -0.765296 4.937011 1.653690 -0.930557 6.755927 2.223343 -6.983155 14.546218 -19.454112 -6.081815 2.795582 -61.208781 -15.451428 9.054681 7.962696 -18.576312 -4.494442 11.224651 -6.187001 -25.430150 20.444252 8.597089 2.102559 59.308385 11.858616 11.129807 -14.038222 18.266146 -3.086541 -0.397522 5.748288 -5.772308 
-0.414245 0.261056 0.934129 94.832887 1.240850 80.611866 6.328136 -1.334787 -20.302610 -9.489538 0.229948 46.542504 3.258891 11.900306 -20.767084 0.000000 -0.000000 0.000000 -4.363416 -2.019076 -18.607212 4.331001 -5.084431 48.599851 0.010269 -6.728284 -23.554532 0.000000 -0.000000 0.000000 -0.535624 2.442253 27.202473 2.883752 -1.868841 -1.148440 0.928040 -0.871908 5.424610 1.768268 -1.046549 7.934540 1.951860 -6.672745 14.469150 -20.064715 -2.715458 3.106717 -59.181938 -12.031348 7.300767 6.631917 -14.877807 -2.593563 7.249511 -4.771984 -21.584074 20.989192 5.930902 2.311828 57.350773 9.456043 10.266792 -12.684556 16.637504 -1.509966 2.275336 4.243258 -4.418630 
-0.413541 0.263057 0.946180 93.314674 1.060241 81.974283 5.856047 -1.440588 -19.481182 -9.193742 -0.388456 42.936726 2.998095 12.951060 -19.335672 0.000000 -0.000000 0.000000 -4.127798 -1.124745 -18.933298 4.304407 -4.434623 45.705247 0.687949 -7.011535 -21.356167 0.000000 -0.000000 0.000000 -0.537283 2.266225 27.063429 2.696814 -1.452642 -0.900284 0.837329 -0.783229 5.361526 1.518901 -1.219384 9.238612 2.111500 -6.019650 12.663842 -20.758551 0.376320 3.636546 -57.391874 -8.162944 5.660188 6.082642 -12.815183 -1.334942 3.456598 -3.171344 -17.311976 21.281898 3.631662 2.786864 55.899907 6.996660 9.043288 -12.023361 15.704238 -1.800324 3.763388 2.844679 -4.470764 
-0.413336 0.264213 0.958452 91.917154 0.996961 83.320171 5.784860 -0.859242 -18.581710 -9.104716 -0.779791 39.162625 2.738765 13.105792 -17.953321 0.000000 -0.000000 0.000000 -3.753717 -1.075149 -18.769592 4.371113 -3.248968 42.125454 0.979017 -6.866748 -19.405132 0.000000 -0.000000 0.000000 -0.511194 2.159642 26.764507 2.451923 -1.245312 -0.735357 0.859551 -0.766141 5.476325 1.188021 -1.210210 9.894687 2.264125 -5.283756 11.340318 -20.710347 2.986676 4.482014 -56.354423 -4.432776 4.408344 5.373628 -11.420453 0.001839 1.452948 -2.545122 -15.523720 21.045635 1.769235 3.418348 55.015829 4.596713 8.027529 -11.416847 14.546006 -1.834842 3.965201 2.414506 -4.532216 
-0.413947 0.265382 0.967379 91.521110 0.937263 84.978011 5.806983 -0.364031 -18.571560 -9.333851 -1.240960 35.972986 2.555634 12.914772 -16.845536 0.000000 -0.000000 0.000000 -3.761897 -1.500877 -19.124280 4.607479 -2.609213 39.070451 1.314637 -6.877071 -17.765050 0.000000 -0.000000 0.000000 -0.534607 1.870633 25.956397 2.450001 -1.458340 -0.629667 0.872534 -1.000573 5.812198 1.046783 -0.920934 9.919603 2.197869 -4.792076 10.636130 -19.944961 5.514798 5.203020 -55.947878 -1.241820 3.776400 4.402691 -10.490761 2.965411 0.051031 -2.183014 -13.778296 20.552568 -0.431844 3.806796 54.322453 2.492665 7.344781 -10.767514 13.634679 -0.396536 4.311710 2.088019 -3.465393 
-0.414369 0.266982 0.973574 91.482304 0.876277 86.227886 5.702307 0.075584 -18.568405 -9.463518 -1.706706 33.506476 2.380930 12.711439 -16.075946 0.000000 -0.000000 0.000000 -4.109645 -1.792236 -19.416605 4.937303 -2.670819 36.777900 1.740945 -6.802614 -16.326881 0.000000 -0.000000 0.000000 -0.373639 1.517434 25.423114 2.505779 -1.667447 -0.425781 0.801787 -1.272197 6.114829 0.969948 -0.511405 9.730956 2.044914 -4.595640 9.881251 -18.993015 7.672181 5.718618 -55.655071 1.492600 3.270064 3.221363 -10.233171 6.553351 -2.143001 -1.739559 -10.873689 19.981909 -2.686732 4.020358 53.732737 0.463817 6.481044 -10.121151 13.191778 0.587721 5.123221 1.525693 -2.729166 
-0.414191 0.268516 0.977827 91.163044 0.738614 86.949834 5.519722 0.288698 -18.301723 -9.391407 -1.742904 31.596358 2.286167 12.841283 -15.378247 0.000000 -0.000000 0.000000 -4.360728 -1.870181 -19.540264 5.094976 -2.421950 35.263032 2.114318 -6.716374 -15.289039 0.000000 -0.000000 0.000000 -0.279103 1.449473 25.252414 2.588158 -1.644496 -0.214806 0.794690 -1.428539 6.325431 0.747576 -0.206976 9.701684 1.925913 -4.560121 9.363205 -18.340468 9.231364 6.300814 -55.200790 3.559944 2.980951 2.135983 -10.411990 9.009063 -3.812624 -1.984109 -8.921783 19.718373 -4.476826 4.378719 53.048605 -1.509225 5.615712 -9.671681 12.697268 0.423607 5.722905 1.269725 -2.923933 
-0.414446 0.269674 0.980455 90.886481 0.623373 87.640784 5.225893 0.190453 -18.383959 -9.111861 -1.820923 30.305119 2.393738 13.132250 -14.736938 0.000000 -0.000000 0.000000 -4.345280 -1.762069 -19.784064 5.047999 -1.889922 34.119110 2.219276 -6.934911 -14.674571 0.000000 -0.000000 0.000000 -0.199539 1.413313 25.082341 2.724473 -1.584860 -0.128224 0.794221 -1.495128 6.544012 0.598835 0.108265 9.522134 1.652478 -4.599037 9.299541 -17.986717 10.410888 6.588125 -54.608054 4.718556 2.885256 1.191341 -10.277831 10.507853 -6.255151 -2.442443 -8.675387 19.713987 -5.959895 4.687007 52.529038 -3.093217 5.185723 -9.652092 12.102260 -0.016800 6.765815 0.970096 -3.373825 
-0.414954 0.270456 0.982231 90.725605 0.575523 88.312282 4.920885 0.008246 -18.648817 -8.715549 -1.981268 29.348871 2.604253 13.380939 -14.114202 0.000000 -0.000000 0.000000 -4.210273 -1.518351 -20.067105 4.849290 -1.537440 33.169835 2.225857 -7.249251 -14.227244 0.000000 -0.000000 0.000000 -0.088425 1.287104 24.937709 2.822207 -1.548682 -0.111096 0.786005 -1.519445 6.762520 0.457060 0.315801 9.341942 1.573887 -4.541332 9.096559 -17.852900 11.298909 6.627455 -54.281778 5.188250 2.782936 0.801602 -10.436648 10.894839 -7.191954 -2.423330 -8.758748 19.825394 -7.072943 4.800314 52.353736 -4.162933 5.043272 -9.619419 11.481585 -0.046447 7.120118 0.644783 -3.134899 
-0.415110 0.270698 0.983627 90.543237 0.489464 88.722149 4.768377 -0.161650 -18.668608 -8.445466 -1.894948 28.498766 2.593834 13.496165 -13.613614 0.000000 -0.000000 0.000000 -4.145923 -1.231960 -20.125325 4.672749 -1.245361 32.427094 2.324567 -7.412121 -13.886313 0.000000 -0.000000 0.000000 -0.105660 1.225653 24.968785 2.858837 -1.549449 -0.012619 0.827035 -1.510719 6.870078 0.301492 0.448941 9.185814 1.728603 -4.418560 8.871467 -17.924883 11.688229 6.686158 -54.255512 5.069121 2.632997 0.791203 -10.791769 9.754750 -6.646581 -2.473728 -9.666720 19.989987 -7.650494 4.950787 52.593500 -4.780275 5.060871 -9.578731 11.147775 -0.480149 7.003379 0.529261 -3.379951 
-0.415154 0.270522 0.984479 90.435535 0.420138 89.083986 4.797388 -0.195146 -18.783789 -8.409193 -1.662509 27.978379 2.494638 13.421248 -13.420141 0.000000 -0.000000 0.000000 -4.131827 -1.042692 -20.251958 4.570459 -1.139172 31.951610 2.363142 -7.371454 -13.721730 0.000000 -0.000000 0.000000 -0.158046 1.160562 25.020760 2.856372 -1.584462 -0.029337 0.860953 -1.498675 6.882584 0.238175 0.515162 8.987332 1.947663 -4.347864 8.918379 -17.936772 11.585957 6.709131 -54.676667 4.437545 2.731589 1.024083 -11.110058 8.324847 -5.578339 -2.884328 -11.348765 19.994468 -7.827592 5.159760 53.409771 -5.025425 5.323532 -9.576309 11.137753 -0.826203 6.800523 0.657094 -4.230677 
